<?xml version="1.0" encoding="UTF-8"?>
<svg id="Layer_1" xmlns="http://www.w3.org/2000/svg" version="1.1" viewBox="0 0 164.75 38.62">
  <!-- Generator: Adobe Illustrator 29.8.3, SVG Export Plug-In . SVG Version: 2.1.1 Build 3)  -->
  <defs>
    <style>
      .st0 {
        font-family: Poppins-Bold, Poppins;
        font-size: 8.69px;
      }

      .st0, .st1, .st2, .st3 {
        fill: #ea3e2d;
      }

      .st0, .st2, .st3 {
        font-weight: 700;
      }

      .st4, .st5 {
        fill: #253551;
      }

      .st5 {
        font-family: Poppins-Medium, Poppins;
        font-size: 7.37px;
        font-weight: 500;
      }

      .st2 {
        letter-spacing: .11em;
      }

      .st2, .st3 {
        font-family: MyriadPro-Bold, 'Myriad Pro';
        font-size: 3.36px;
      }

      .st3 {
        letter-spacing: .11em;
      }
    </style>
  </defs>
  <g>
    <path class="st4" d="M37.15,11.77H15.3c-.06,0-.86.48-1.02.59-3.07,2.15-1.65,6.86,2.04,7.09.51.03.97-.14,1.48-.14,1.49.02,5.15-.25,6.32.11,2.36.75,2.25,5.05-.81,5.4-3.34.38-7.35-.29-10.76,0l-.8-1.15h11.78c1.17,0,1.58-2.75.18-3.16-.97-.28-4.4-.06-5.68-.06-1.21,0-1.65.37-3.08-.1-5.32-1.75-4.51-9.65,1.94-9.83,3.71-.1,7.49.29,11.21.1l.11-.45c-1.3-.71-2.49-1.63-3.89-2.17C14.28,4.11,4.27,13.48,7.41,23.67l-1.26-.22c-.13-.42-.24-.85-.31-1.29C3.59,8.28,20.76.49,30.22,10.59l6.09-.16.84,1.35Z"/>
    <path class="st1" d="M23.77,26.19c4.58-.64,4.94-7.83-.25-8.44-2.24-.26-7.08,1.02-8.68-.48s-.67-4.16,1.6-4.36c3.69-.34,7.89.28,11.64,0l.62,1.15h-12.7c-1.06.56-1.13,2.36.05,2.7,1.02.29,4.57.05,5.91.06.52,0,.93-.22,1.52-.19,3.99.22,6.48,5.01,4.07,8.3-.48.66-2.32,2.17-3.09,2.17h-15.21c.43,1.36,2.17,2.86,3.36,3.62,11.15,7.07,24.45-5.02,18.38-16.66h1.22c2.96,5.94.99,13.27-4.35,17.12-6.72,4.85-15.71,2.76-20.21-3.97l-5.34-.1-.38-.92h21.85Z"/>
  </g>
  <g>
    <text class="st3" transform="translate(13.47 30.38)"><tspan x="0" y="0">T</tspan></text>
    <text class="st2" transform="translate(15.69 30.38) scale(.7)"><tspan x="0" y="0">ZIGANE</tspan></text>
  </g>
  <text class="st0" transform="translate(38.38 19.33)"><tspan x="0" y="0">SS TZIGANE INDIA PVT. LTD.</tspan></text>
  <text class="st5" transform="translate(38.38 29.11) scale(1.02 1)"><tspan x="0" y="0">A MEP CONTRACTING COMPANY</tspan></text>
</svg>